<?xml version="1.0" standalone="no"?>
<!DOCTYPE svg PUBLIC "-//W3C//DTD SVG 1.1//EN" "http://www.w3.org/Graphics/SVG/1.1/DTD/svg11.dtd">
<svg version="1.1" width="1200" height="422" onload="init(evt)" viewBox="0 0 1200 422" xmlns="http://www.w3.org/2000/svg" xmlns:xlink="http://www.w3.org/1999/xlink">
<!-- Flame graph stack visualization. See https://github.com/brendangregg/FlameGraph for latest version, and http://www.brendangregg.com/flamegraphs.html for examples. -->
<!-- NOTES:  -->
<defs>
	<linearGradient id="background" y1="0" y2="1" x1="0" x2="0" >
		<stop stop-color="#eeeeee" offset="5%" />
		<stop stop-color="#eeeeb0" offset="95%" />
	</linearGradient>
</defs>
<style type="text/css">
	text { font-family:Verdana; font-size:12px; fill:rgb(0,0,0); }
	#search, #ignorecase { opacity:0.1; cursor:pointer; }
	#search:hover, #search.show, #ignorecase:hover, #ignorecase.show { opacity:1; }
	#subtitle { text-anchor:middle; font-color:rgb(160,160,160); }
	#title { text-anchor:middle; font-size:17px}
	#unzoom { cursor:pointer; }
	#frames > *:hover { stroke:black; stroke-width:0.5; cursor:pointer; }
	.hide { display:none; }
	.parent { opacity:0.5; }
</style>
<script type="text/ecmascript">
<![CDATA[
	"use strict";
	var details, searchbtn, unzoombtn, matchedtxt, svg, searching, currentSearchTerm, ignorecase, ignorecaseBtn;
	function init(evt) {
		details = document.getElementById("details").firstChild;
		searchbtn = document.getElementById("search");
		ignorecaseBtn = document.getElementById("ignorecase");
		unzoombtn = document.getElementById("unzoom");
		matchedtxt = document.getElementById("matched");
		svg = document.getElementsByTagName("svg")[0];
		searching = 0;
		currentSearchTerm = null;

		// use GET parameters to restore a flamegraphs state.
		var params = get_params();
		if (params.x && params.y)
			zoom(find_group(document.querySelector('[x="' + params.x + '"][y="' + params.y + '"]')));
                if (params.s) search(params.s);
	}

	// event listeners
	window.addEventListener("click", function(e) {
		var target = find_group(e.target);
		if (target) {
			if (target.nodeName == "a") {
				if (e.ctrlKey === false) return;
				e.preventDefault();
			}
			if (target.classList.contains("parent")) unzoom(true);
			zoom(target);
			if (!document.querySelector('.parent')) {
				// we have basically done a clearzoom so clear the url
				var params = get_params();
				if (params.x) delete params.x;
				if (params.y) delete params.y;
				history.replaceState(null, null, parse_params(params));
				unzoombtn.classList.add("hide");
				return;
			}

			// set parameters for zoom state
			var el = target.querySelector("rect");
			if (el && el.attributes && el.attributes.y && el.attributes._orig_x) {
				var params = get_params()
				params.x = el.attributes._orig_x.value;
				params.y = el.attributes.y.value;
				history.replaceState(null, null, parse_params(params));
			}
		}
		else if (e.target.id == "unzoom") clearzoom();
		else if (e.target.id == "search") search_prompt();
		else if (e.target.id == "ignorecase") toggle_ignorecase();
	}, false)

	// mouse-over for info
	// show
	window.addEventListener("mouseover", function(e) {
		var target = find_group(e.target);
		if (target) details.nodeValue = "Function: " + g_to_text(target);
	}, false)

	// clear
	window.addEventListener("mouseout", function(e) {
		var target = find_group(e.target);
		if (target) details.nodeValue = ' ';
	}, false)

	// ctrl-F for search
	// ctrl-I to toggle case-sensitive search
	window.addEventListener("keydown",function (e) {
		if (e.keyCode === 114 || (e.ctrlKey && e.keyCode === 70)) {
			e.preventDefault();
			search_prompt();
		}
		else if (e.ctrlKey && e.keyCode === 73) {
			e.preventDefault();
			toggle_ignorecase();
		}
	}, false)

	// functions
	function get_params() {
		var params = {};
		var paramsarr = window.location.search.substr(1).split('&');
		for (var i = 0; i < paramsarr.length; ++i) {
			var tmp = paramsarr[i].split("=");
			if (!tmp[0] || !tmp[1]) continue;
			params[tmp[0]]  = decodeURIComponent(tmp[1]);
		}
		return params;
	}
	function parse_params(params) {
		var uri = "?";
		for (var key in params) {
			uri += key + '=' + encodeURIComponent(params[key]) + '&';
		}
		if (uri.slice(-1) == "&")
			uri = uri.substring(0, uri.length - 1);
		if (uri == '?')
			uri = window.location.href.split('?')[0];
		return uri;
	}
	function find_child(node, selector) {
		var children = node.querySelectorAll(selector);
		if (children.length) return children[0];
	}
	function find_group(node) {
		var parent = node.parentElement;
		if (!parent) return;
		if (parent.id == "frames") return node;
		return find_group(parent);
	}
	function orig_save(e, attr, val) {
		if (e.attributes["_orig_" + attr] != undefined) return;
		if (e.attributes[attr] == undefined) return;
		if (val == undefined) val = e.attributes[attr].value;
		e.setAttribute("_orig_" + attr, val);
	}
	function orig_load(e, attr) {
		if (e.attributes["_orig_"+attr] == undefined) return;
		e.attributes[attr].value = e.attributes["_orig_" + attr].value;
		e.removeAttribute("_orig_"+attr);
	}
	function g_to_text(e) {
		var text = find_child(e, "title").firstChild.nodeValue;
		return (text)
	}
	function g_to_func(e) {
		var func = g_to_text(e);
		// if there's any manipulation we want to do to the function
		// name before it's searched, do it here before returning.
		return (func);
	}
	function update_text(e) {
		var r = find_child(e, "rect");
		var t = find_child(e, "text");
		var w = parseFloat(r.attributes.width.value) -3;
		var txt = find_child(e, "title").textContent.replace(/\([^(]*\)$/,"");
		t.attributes.x.value = parseFloat(r.attributes.x.value) + 3;

		// Smaller than this size won't fit anything
		if (w < 2 * 12 * 0.59) {
			t.textContent = "";
			return;
		}

		t.textContent = txt;
		var sl = t.getSubStringLength(0, txt.length);
		// check if only whitespace or if we can fit the entire string into width w
		if (/^ *$/.test(txt) || sl < w)
			return;

		// this isn't perfect, but gives a good starting point
		// and avoids calling getSubStringLength too often
		var start = Math.floor((w/sl) * txt.length);
		for (var x = start; x > 0; x = x-2) {
			if (t.getSubStringLength(0, x + 2) <= w) {
				t.textContent = txt.substring(0, x) + "..";
				return;
			}
		}
		t.textContent = "";
	}

	// zoom
	function zoom_reset(e) {
		if (e.attributes != undefined) {
			orig_load(e, "x");
			orig_load(e, "width");
		}
		if (e.childNodes == undefined) return;
		for (var i = 0, c = e.childNodes; i < c.length; i++) {
			zoom_reset(c[i]);
		}
	}
	function zoom_child(e, x, ratio) {
		if (e.attributes != undefined) {
			if (e.attributes.x != undefined) {
				orig_save(e, "x");
				e.attributes.x.value = (parseFloat(e.attributes.x.value) - x - 10) * ratio + 10;
				if (e.tagName == "text")
					e.attributes.x.value = find_child(e.parentNode, "rect[x]").attributes.x.value + 3;
			}
			if (e.attributes.width != undefined) {
				orig_save(e, "width");
				e.attributes.width.value = parseFloat(e.attributes.width.value) * ratio;
			}
		}

		if (e.childNodes == undefined) return;
		for (var i = 0, c = e.childNodes; i < c.length; i++) {
			zoom_child(c[i], x - 10, ratio);
		}
	}
	function zoom_parent(e) {
		if (e.attributes) {
			if (e.attributes.x != undefined) {
				orig_save(e, "x");
				e.attributes.x.value = 10;
			}
			if (e.attributes.width != undefined) {
				orig_save(e, "width");
				e.attributes.width.value = parseInt(svg.width.baseVal.value) - (10 * 2);
			}
		}
		if (e.childNodes == undefined) return;
		for (var i = 0, c = e.childNodes; i < c.length; i++) {
			zoom_parent(c[i]);
		}
	}
	function zoom(node) {
		var attr = find_child(node, "rect").attributes;
		var width = parseFloat(attr.width.value);
		var xmin = parseFloat(attr.x.value);
		var xmax = parseFloat(xmin + width);
		var ymin = parseFloat(attr.y.value);
		var ratio = (svg.width.baseVal.value - 2 * 10) / width;

		// XXX: Workaround for JavaScript float issues (fix me)
		var fudge = 0.0001;

		unzoombtn.classList.remove("hide");

		var el = document.getElementById("frames").children;
		for (var i = 0; i < el.length; i++) {
			var e = el[i];
			var a = find_child(e, "rect").attributes;
			var ex = parseFloat(a.x.value);
			var ew = parseFloat(a.width.value);
			var upstack;
			// Is it an ancestor
			if (0 == 0) {
				upstack = parseFloat(a.y.value) > ymin;
			} else {
				upstack = parseFloat(a.y.value) < ymin;
			}
			if (upstack) {
				// Direct ancestor
				if (ex <= xmin && (ex+ew+fudge) >= xmax) {
					e.classList.add("parent");
					zoom_parent(e);
					update_text(e);
				}
				// not in current path
				else
					e.classList.add("hide");
			}
			// Children maybe
			else {
				// no common path
				if (ex < xmin || ex + fudge >= xmax) {
					e.classList.add("hide");
				}
				else {
					zoom_child(e, xmin, ratio);
					update_text(e);
				}
			}
		}
		search();
	}
	function unzoom(dont_update_text) {
		unzoombtn.classList.add("hide");
		var el = document.getElementById("frames").children;
		for(var i = 0; i < el.length; i++) {
			el[i].classList.remove("parent");
			el[i].classList.remove("hide");
			zoom_reset(el[i]);
			if(!dont_update_text) update_text(el[i]);
		}
		search();
	}
	function clearzoom() {
		unzoom();

		// remove zoom state
		var params = get_params();
		if (params.x) delete params.x;
		if (params.y) delete params.y;
		history.replaceState(null, null, parse_params(params));
	}

	// search
	function toggle_ignorecase() {
		ignorecase = !ignorecase;
		if (ignorecase) {
			ignorecaseBtn.classList.add("show");
		} else {
			ignorecaseBtn.classList.remove("show");
		}
		reset_search();
		search();
	}
	function reset_search() {
		var el = document.querySelectorAll("#frames rect");
		for (var i = 0; i < el.length; i++) {
			orig_load(el[i], "fill")
		}
		var params = get_params();
		delete params.s;
		history.replaceState(null, null, parse_params(params));
	}
	function search_prompt() {
		if (!searching) {
			var term = prompt("Enter a search term (regexp " +
			    "allowed, eg: ^ext4_)"
			    + (ignorecase ? ", ignoring case" : "")
			    + "\nPress Ctrl-i to toggle case sensitivity", "");
			if (term != null) search(term);
		} else {
			reset_search();
			searching = 0;
			currentSearchTerm = null;
			searchbtn.classList.remove("show");
			searchbtn.firstChild.nodeValue = "Search"
			matchedtxt.classList.add("hide");
			matchedtxt.firstChild.nodeValue = ""
		}
	}
	function search(term) {
		if (term) currentSearchTerm = term;
		if (currentSearchTerm === null) return;

		var re = new RegExp(currentSearchTerm, ignorecase ? 'i' : '');
		var el = document.getElementById("frames").children;
		var matches = new Object();
		var maxwidth = 0;
		for (var i = 0; i < el.length; i++) {
			var e = el[i];
			var func = g_to_func(e);
			var rect = find_child(e, "rect");
			if (func == null || rect == null)
				continue;

			// Save max width. Only works as we have a root frame
			var w = parseFloat(rect.attributes.width.value);
			if (w > maxwidth)
				maxwidth = w;

			if (func.match(re)) {
				// highlight
				var x = parseFloat(rect.attributes.x.value);
				orig_save(rect, "fill");
				rect.attributes.fill.value = "rgb(230,0,230)";

				// remember matches
				if (matches[x] == undefined) {
					matches[x] = w;
				} else {
					if (w > matches[x]) {
						// overwrite with parent
						matches[x] = w;
					}
				}
				searching = 1;
			}
		}
		if (!searching)
			return;
		var params = get_params();
		params.s = currentSearchTerm;
		history.replaceState(null, null, parse_params(params));

		searchbtn.classList.add("show");
		searchbtn.firstChild.nodeValue = "Reset Search";

		// calculate percent matched, excluding vertical overlap
		var count = 0;
		var lastx = -1;
		var lastw = 0;
		var keys = Array();
		for (k in matches) {
			if (matches.hasOwnProperty(k))
				keys.push(k);
		}
		// sort the matched frames by their x location
		// ascending, then width descending
		keys.sort(function(a, b){
			return a - b;
		});
		// Step through frames saving only the biggest bottom-up frames
		// thanks to the sort order. This relies on the tree property
		// where children are always smaller than their parents.
		var fudge = 0.0001;	// JavaScript floating point
		for (var k in keys) {
			var x = parseFloat(keys[k]);
			var w = matches[keys[k]];
			if (x >= lastx + lastw - fudge) {
				count += w;
				lastx = x;
				lastw = w;
			}
		}
		// display matched percent
		matchedtxt.classList.remove("hide");
		var pct = 100 * count / maxwidth;
		if (pct != 100) pct = pct.toFixed(1)
		matchedtxt.firstChild.nodeValue = "Matched: " + pct + "%";
	}
]]>
</script>
<rect x="0.0" y="0" width="1200.0" height="422.0" fill="url(#background)"  />
<text id="title" x="600.00" y="24" >Flame Graph</text>
<text id="details" x="10.00" y="405" > </text>
<text id="unzoom" x="10.00" y="24" class="hide">Reset Zoom</text>
<text id="search" x="1090.00" y="24" >Search</text>
<text id="ignorecase" x="1174.00" y="24" >ic</text>
<text id="matched" x="1090.00" y="405" > </text>
<g id="frames">
<g >
<title>[unknown] (3,915,416 samples, 0.02%)</title><rect x="725.7" y="277" width="0.3" height="15.0" fill="rgb(210,24,5)" rx="2" ry="2" />
<text  x="728.66" y="287.5" ></text>
</g>
<g >
<title>X509_STORE_set_default_paths_ex (15,799,705 samples, 0.10%)</title><rect x="1188.8" y="325" width="1.2" height="15.0" fill="rgb(218,60,14)" rx="2" ry="2" />
<text  x="1191.79" y="335.5" ></text>
</g>
<g >
<title>X509_OBJECT_retrieve_match (4,313,881 samples, 0.03%)</title><rect x="1188.2" y="245" width="0.4" height="15.0" fill="rgb(235,142,34)" rx="2" ry="2" />
<text  x="1191.23" y="255.5" ></text>
</g>
<g >
<title>[boa] (6,015,309,108 samples, 38.39%)</title><rect x="726.7" y="325" width="453.0" height="15.0" fill="rgb(248,198,47)" rx="2" ry="2" />
<text  x="729.73" y="335.5" >[boa]</text>
</g>
<g >
<title>X509_STORE_add_cert (4,313,881 samples, 0.03%)</title><rect x="1188.2" y="261" width="0.4" height="15.0" fill="rgb(222,80,19)" rx="2" ry="2" />
<text  x="1191.23" y="271.5" ></text>
</g>
<g >
<title>EVP_DecodeUpdate (2,231,458 samples, 0.01%)</title><rect x="1189.8" y="245" width="0.2" height="15.0" fill="rgb(238,152,36)" rx="2" ry="2" />
<text  x="1192.81" y="255.5" ></text>
</g>
<g >
<title>[unknown] (6,582,802 samples, 0.04%)</title><rect x="1187.7" y="117" width="0.5" height="15.0" fill="rgb(210,24,5)" rx="2" ry="2" />
<text  x="1190.73" y="127.5" ></text>
</g>
<g >
<title>[libcrypto.so.3] (3,802,210 samples, 0.02%)</title><rect x="1187.4" y="165" width="0.3" height="15.0" fill="rgb(234,136,32)" rx="2" ry="2" />
<text  x="1190.45" y="175.5" ></text>
</g>
<g >
<title>OSSL_DECODER_CTX_new_for_pkey (5,642,647 samples, 0.04%)</title><rect x="1189.2" y="149" width="0.4" height="15.0" fill="rgb(241,169,40)" rx="2" ry="2" />
<text  x="1192.18" y="159.5" ></text>
</g>
<g >
<title>[unknown] (6,582,802 samples, 0.04%)</title><rect x="1187.7" y="69" width="0.5" height="15.0" fill="rgb(210,24,5)" rx="2" ry="2" />
<text  x="1190.73" y="79.5" ></text>
</g>
<g >
<title>[unknown] (6,582,802 samples, 0.04%)</title><rect x="1187.7" y="37" width="0.5" height="15.0" fill="rgb(210,24,5)" rx="2" ry="2" />
<text  x="1190.73" y="47.5" ></text>
</g>
<g >
<title>reqwest-interna (33,910,200 samples, 0.22%)</title><rect x="1187.4" y="357" width="2.6" height="15.0" fill="rgb(226,97,23)" rx="2" ry="2" />
<text  x="1190.45" y="367.5" ></text>
</g>
<g >
<title>boa (15,634,580,332 samples, 99.78%)</title><rect x="10.0" y="357" width="1177.4" height="15.0" fill="rgb(236,146,34)" rx="2" ry="2" />
<text  x="13.00" y="367.5" >boa</text>
</g>
<g >
<title>[libcrypto.so.3] (10,908,586 samples, 0.07%)</title><rect x="1188.8" y="229" width="0.8" height="15.0" fill="rgb(234,136,32)" rx="2" ry="2" />
<text  x="1191.79" y="239.5" ></text>
</g>
<g >
<title>[libcrypto.so.3] (2,882,498 samples, 0.02%)</title><rect x="1189.4" y="117" width="0.2" height="15.0" fill="rgb(234,136,32)" rx="2" ry="2" />
<text  x="1192.39" y="127.5" ></text>
</g>
<g >
<title>[libcrypto.so.3] (2,882,498 samples, 0.02%)</title><rect x="1189.4" y="101" width="0.2" height="15.0" fill="rgb(234,136,32)" rx="2" ry="2" />
<text  x="1192.39" y="111.5" ></text>
</g>
<g >
<title>[unknown] (62,313,475 samples, 0.40%)</title><rect x="1182.8" y="309" width="4.6" height="15.0" fill="rgb(210,24,5)" rx="2" ry="2" />
<text  x="1185.75" y="319.5" ></text>
</g>
<g >
<title>SSL_CTX_load_verify_locations (14,698,893 samples, 0.09%)</title><rect x="1187.4" y="325" width="1.2" height="15.0" fill="rgb(215,47,11)" rx="2" ry="2" />
<text  x="1190.45" y="335.5" ></text>
</g>
<g >
<title>[boa] (154,314,513 samples, 0.98%)</title><rect x="698.2" y="309" width="11.6" height="15.0" fill="rgb(248,198,47)" rx="2" ry="2" />
<text  x="701.21" y="319.5" ></text>
</g>
<g >
<title>[unknown] (12,502,099 samples, 0.08%)</title><rect x="1178.8" y="309" width="0.9" height="15.0" fill="rgb(210,24,5)" rx="2" ry="2" />
<text  x="1181.81" y="319.5" ></text>
</g>
<g >
<title>X509_load_cert_crl_file_ex (15,799,705 samples, 0.10%)</title><rect x="1188.8" y="293" width="1.2" height="15.0" fill="rgb(252,217,52)" rx="2" ry="2" />
<text  x="1191.79" y="303.5" ></text>
</g>
<g >
<title>[libc.so.6] (6,582,802 samples, 0.04%)</title><rect x="1187.7" y="149" width="0.5" height="15.0" fill="rgb(223,84,20)" rx="2" ry="2" />
<text  x="1190.73" y="159.5" ></text>
</g>
<g >
<title>[libcrypto.so.3] (3,031,083 samples, 0.02%)</title><rect x="1187.5" y="53" width="0.2" height="15.0" fill="rgb(234,136,32)" rx="2" ry="2" />
<text  x="1190.50" y="63.5" ></text>
</g>
<g >
<title>BUF_MEM_grow_clean (6,582,802 samples, 0.04%)</title><rect x="1187.7" y="197" width="0.5" height="15.0" fill="rgb(239,160,38)" rx="2" ry="2" />
<text  x="1190.73" y="207.5" ></text>
</g>
<g >
<title>all (15,668,490,532 samples, 100%)</title><rect x="10.0" y="373" width="1180.0" height="15.0" fill="rgb(213,39,9)" rx="2" ry="2" />
<text  x="13.00" y="383.5" ></text>
</g>
<g >
<title>[libcrypto.so.3] (3,802,210 samples, 0.02%)</title><rect x="1187.4" y="213" width="0.3" height="15.0" fill="rgb(234,136,32)" rx="2" ry="2" />
<text  x="1190.45" y="223.5" ></text>
</g>
<g >
<title>[unknown] (3,915,416 samples, 0.02%)</title><rect x="725.7" y="325" width="0.3" height="15.0" fill="rgb(210,24,5)" rx="2" ry="2" />
<text  x="728.66" y="335.5" ></text>
</g>
<g >
<title>PEM_read_bio_ex (4,824,657 samples, 0.03%)</title><rect x="1189.6" y="261" width="0.4" height="15.0" fill="rgb(245,184,44)" rx="2" ry="2" />
<text  x="1192.61" y="271.5" ></text>
</g>
<g >
<title>OPENSSL_sk_pop_free (3,031,083 samples, 0.02%)</title><rect x="1187.5" y="117" width="0.2" height="15.0" fill="rgb(234,133,31)" rx="2" ry="2" />
<text  x="1190.50" y="127.5" ></text>
</g>
<g >
<title>[boa] (543,734,027 samples, 3.47%)</title><rect x="668.9" y="325" width="40.9" height="15.0" fill="rgb(248,198,47)" rx="2" ry="2" />
<text  x="671.88" y="335.5" >[boa]</text>
</g>
<g >
<title>[boa] (10,008,486 samples, 0.06%)</title><rect x="726.0" y="325" width="0.7" height="15.0" fill="rgb(248,198,47)" rx="2" ry="2" />
<text  x="728.98" y="335.5" ></text>
</g>
<g >
<title>CRYPTO_clear_realloc (6,582,802 samples, 0.04%)</title><rect x="1187.7" y="181" width="0.5" height="15.0" fill="rgb(208,17,4)" rx="2" ry="2" />
<text  x="1190.73" y="191.5" ></text>
</g>
<g >
<title>ASN1_item_free (3,031,083 samples, 0.02%)</title><rect x="1187.5" y="85" width="0.2" height="15.0" fill="rgb(225,93,22)" rx="2" ry="2" />
<text  x="1190.50" y="95.5" ></text>
</g>
<g >
<title>OPENSSL_sk_pop_free (5,145,440 samples, 0.03%)</title><rect x="1188.8" y="149" width="0.4" height="15.0" fill="rgb(234,133,31)" rx="2" ry="2" />
<text  x="1191.80" y="159.5" ></text>
</g>
<g >
<title>OPENSSL_sk_free (5,145,440 samples, 0.03%)</title><rect x="1188.8" y="133" width="0.4" height="15.0" fill="rgb(211,31,7)" rx="2" ry="2" />
<text  x="1191.80" y="143.5" ></text>
</g>
<g >
<title>[libcrypto.so.3] (10,908,586 samples, 0.07%)</title><rect x="1188.8" y="197" width="0.8" height="15.0" fill="rgb(234,136,32)" rx="2" ry="2" />
<text  x="1191.79" y="207.5" ></text>
</g>
<g >
<title>PEM_X509_INFO_read_bio_ex (15,733,243 samples, 0.10%)</title><rect x="1188.8" y="277" width="1.2" height="15.0" fill="rgb(240,163,39)" rx="2" ry="2" />
<text  x="1191.79" y="287.5" ></text>
</g>
<g >
<title>OBJ_obj2txt (3,110,316 samples, 0.02%)</title><rect x="1188.6" y="245" width="0.2" height="15.0" fill="rgb(253,222,53)" rx="2" ry="2" />
<text  x="1191.56" y="255.5" ></text>
</g>
<g >
<title>[libcrypto.so.3] (3,110,316 samples, 0.02%)</title><rect x="1188.6" y="277" width="0.2" height="15.0" fill="rgb(234,136,32)" rx="2" ry="2" />
<text  x="1191.56" y="287.5" ></text>
</g>
<g >
<title>[unknown] (6,582,802 samples, 0.04%)</title><rect x="1187.7" y="85" width="0.5" height="15.0" fill="rgb(210,24,5)" rx="2" ry="2" />
<text  x="1190.73" y="95.5" ></text>
</g>
<g >
<title>cfree (5,145,440 samples, 0.03%)</title><rect x="1188.8" y="117" width="0.4" height="15.0" fill="rgb(223,86,20)" rx="2" ry="2" />
<text  x="1191.80" y="127.5" ></text>
</g>
<g >
<title>OSSL_DECODER_CTX_add_extra (2,882,498 samples, 0.02%)</title><rect x="1189.4" y="133" width="0.2" height="15.0" fill="rgb(239,160,38)" rx="2" ry="2" />
<text  x="1192.39" y="143.5" ></text>
</g>
<g >
<title>malloc (2,593,166 samples, 0.02%)</title><rect x="1189.6" y="229" width="0.2" height="15.0" fill="rgb(230,119,28)" rx="2" ry="2" />
<text  x="1192.61" y="239.5" ></text>
</g>
<g >
<title>[unknown] (3,915,416 samples, 0.02%)</title><rect x="725.7" y="293" width="0.3" height="15.0" fill="rgb(210,24,5)" rx="2" ry="2" />
<text  x="728.66" y="303.5" ></text>
</g>
<g >
<title>CRYPTO_malloc (2,593,166 samples, 0.02%)</title><rect x="1189.6" y="245" width="0.2" height="15.0" fill="rgb(210,23,5)" rx="2" ry="2" />
<text  x="1192.61" y="255.5" ></text>
</g>
<g >
<title>CRYPTO_malloc (2,760,149 samples, 0.02%)</title><rect x="1189.2" y="117" width="0.2" height="15.0" fill="rgb(210,23,5)" rx="2" ry="2" />
<text  x="1192.18" y="127.5" ></text>
</g>
<g >
<title>PEM_X509_INFO_read_bio_ex (10,385,012 samples, 0.07%)</title><rect x="1187.4" y="261" width="0.8" height="15.0" fill="rgb(240,163,39)" rx="2" ry="2" />
<text  x="1190.45" y="271.5" ></text>
</g>
<g >
<title>[libcrypto.so.3] (6,582,802 samples, 0.04%)</title><rect x="1187.7" y="213" width="0.5" height="15.0" fill="rgb(234,136,32)" rx="2" ry="2" />
<text  x="1190.73" y="223.5" ></text>
</g>
<g >
<title>[libcrypto.so.3] (15,799,705 samples, 0.10%)</title><rect x="1188.8" y="309" width="1.2" height="15.0" fill="rgb(234,136,32)" rx="2" ry="2" />
<text  x="1191.79" y="319.5" ></text>
</g>
<g >
<title>EVP_CIPHER_fetch (3,110,316 samples, 0.02%)</title><rect x="1188.6" y="293" width="0.2" height="15.0" fill="rgb(234,134,32)" rx="2" ry="2" />
<text  x="1191.56" y="303.5" ></text>
</g>
<g >
<title>[libcrypto.so.3] (3,802,210 samples, 0.02%)</title><rect x="1187.4" y="229" width="0.3" height="15.0" fill="rgb(234,136,32)" rx="2" ry="2" />
<text  x="1190.45" y="239.5" ></text>
</g>
<g >
<title>OPENSSL_sk_pop_free (3,031,083 samples, 0.02%)</title><rect x="1187.5" y="101" width="0.2" height="15.0" fill="rgb(234,133,31)" rx="2" ry="2" />
<text  x="1190.50" y="111.5" ></text>
</g>
<g >
<title>ASN1_item_d2i_ex (10,908,586 samples, 0.07%)</title><rect x="1188.8" y="261" width="0.8" height="15.0" fill="rgb(236,146,35)" rx="2" ry="2" />
<text  x="1191.79" y="271.5" ></text>
</g>
<g >
<title>[boa] (62,313,475 samples, 0.40%)</title><rect x="1182.8" y="293" width="4.6" height="15.0" fill="rgb(248,198,47)" rx="2" ry="2" />
<text  x="1185.75" y="303.5" ></text>
</g>
<g >
<title>[libc.so.6] (62,313,475 samples, 0.40%)</title><rect x="1182.8" y="277" width="4.6" height="15.0" fill="rgb(223,84,20)" rx="2" ry="2" />
<text  x="1185.75" y="287.5" ></text>
</g>
<g >
<title>[unknown] (6,117,547,446 samples, 39.04%)</title><rect x="726.7" y="341" width="460.7" height="15.0" fill="rgb(210,24,5)" rx="2" ry="2" />
<text  x="729.73" y="351.5" >[unknown]</text>
</g>
<g >
<title>ASN1_item_i2d (4,313,881 samples, 0.03%)</title><rect x="1188.2" y="165" width="0.4" height="15.0" fill="rgb(228,106,25)" rx="2" ry="2" />
<text  x="1191.23" y="175.5" ></text>
</g>
<g >
<title>[libcrypto.so.3] (4,313,881 samples, 0.03%)</title><rect x="1188.2" y="133" width="0.4" height="15.0" fill="rgb(234,136,32)" rx="2" ry="2" />
<text  x="1191.23" y="143.5" ></text>
</g>
<g >
<title>[libcrypto.so.3] (3,802,210 samples, 0.02%)</title><rect x="1187.4" y="197" width="0.3" height="15.0" fill="rgb(234,136,32)" rx="2" ry="2" />
<text  x="1190.45" y="207.5" ></text>
</g>
<g >
<title>[unknown] (4,172,667 samples, 0.03%)</title><rect x="1179.4" y="293" width="0.3" height="15.0" fill="rgb(210,24,5)" rx="2" ry="2" />
<text  x="1182.43" y="303.5" ></text>
</g>
<g >
<title>[libssl.so.3] (3,110,316 samples, 0.02%)</title><rect x="1188.6" y="309" width="0.2" height="15.0" fill="rgb(248,201,48)" rx="2" ry="2" />
<text  x="1191.56" y="319.5" ></text>
</g>
<g >
<title>ASN1_item_d2i_ex (3,802,210 samples, 0.02%)</title><rect x="1187.4" y="245" width="0.3" height="15.0" fill="rgb(236,146,35)" rx="2" ry="2" />
<text  x="1190.45" y="255.5" ></text>
</g>
<g >
<title>[boa] (322,789,492 samples, 2.06%)</title><rect x="1154.5" y="309" width="24.3" height="15.0" fill="rgb(248,198,47)" rx="2" ry="2" />
<text  x="1157.50" y="319.5" >[..</text>
</g>
<g >
<title>[libcrypto.so.3] (3,031,083 samples, 0.02%)</title><rect x="1187.5" y="69" width="0.2" height="15.0" fill="rgb(234,136,32)" rx="2" ry="2" />
<text  x="1190.50" y="79.5" ></text>
</g>
<g >
<title>[libcrypto.so.3] (10,908,586 samples, 0.07%)</title><rect x="1188.8" y="213" width="0.8" height="15.0" fill="rgb(234,136,32)" rx="2" ry="2" />
<text  x="1191.79" y="223.5" ></text>
</g>
<g >
<title>[libcrypto.so.3] (3,110,316 samples, 0.02%)</title><rect x="1188.6" y="261" width="0.2" height="15.0" fill="rgb(234,136,32)" rx="2" ry="2" />
<text  x="1191.56" y="271.5" ></text>
</g>
<g >
<title>[libc.so.6] (2,760,149 samples, 0.02%)</title><rect x="1189.2" y="101" width="0.2" height="15.0" fill="rgb(223,84,20)" rx="2" ry="2" />
<text  x="1192.18" y="111.5" ></text>
</g>
<g >
<title>[boa] (70,572,805 samples, 0.45%)</title><rect x="1172.8" y="293" width="5.3" height="15.0" fill="rgb(248,198,47)" rx="2" ry="2" />
<text  x="1175.83" y="303.5" ></text>
</g>
<g >
<title>[libcrypto.so.3] (14,698,893 samples, 0.09%)</title><rect x="1187.4" y="293" width="1.2" height="15.0" fill="rgb(234,136,32)" rx="2" ry="2" />
<text  x="1190.45" y="303.5" ></text>
</g>
<g >
<title>[unknown] (102,238,338 samples, 0.65%)</title><rect x="1179.7" y="325" width="7.7" height="15.0" fill="rgb(210,24,5)" rx="2" ry="2" />
<text  x="1182.75" y="335.5" ></text>
</g>
<g >
<title>X509_digest (4,313,881 samples, 0.03%)</title><rect x="1188.2" y="181" width="0.4" height="15.0" fill="rgb(226,98,23)" rx="2" ry="2" />
<text  x="1191.23" y="191.5" ></text>
</g>
<g >
<title>PEM_read_bio_ex (6,582,802 samples, 0.04%)</title><rect x="1187.7" y="245" width="0.5" height="15.0" fill="rgb(245,184,44)" rx="2" ry="2" />
<text  x="1190.73" y="255.5" ></text>
</g>
<g >
<title>[libcrypto.so.3] (3,031,083 samples, 0.02%)</title><rect x="1187.5" y="133" width="0.2" height="15.0" fill="rgb(234,136,32)" rx="2" ry="2" />
<text  x="1190.50" y="143.5" ></text>
</g>
<g >
<title>[unknown] (4,172,667 samples, 0.03%)</title><rect x="1179.4" y="261" width="0.3" height="15.0" fill="rgb(210,24,5)" rx="2" ry="2" />
<text  x="1182.43" y="271.5" ></text>
</g>
<g >
<title>[libcrypto.so.3] (4,313,881 samples, 0.03%)</title><rect x="1188.2" y="197" width="0.4" height="15.0" fill="rgb(234,136,32)" rx="2" ry="2" />
<text  x="1191.23" y="207.5" ></text>
</g>
<g >
<title>[unknown] (6,582,802 samples, 0.04%)</title><rect x="1187.7" y="101" width="0.5" height="15.0" fill="rgb(210,24,5)" rx="2" ry="2" />
<text  x="1190.73" y="111.5" ></text>
</g>
<g >
<title>[boa] (9,506,705,768 samples, 60.67%)</title><rect x="10.0" y="341" width="716.0" height="15.0" fill="rgb(248,198,47)" rx="2" ry="2" />
<text  x="13.00" y="351.5" >[boa]</text>
</g>
<g >
<title>[libcrypto.so.3] (3,802,210 samples, 0.02%)</title><rect x="1187.4" y="149" width="0.3" height="15.0" fill="rgb(234,136,32)" rx="2" ry="2" />
<text  x="1190.45" y="159.5" ></text>
</g>
<g >
<title>[unknown] (6,582,802 samples, 0.04%)</title><rect x="1187.7" y="53" width="0.5" height="15.0" fill="rgb(210,24,5)" rx="2" ry="2" />
<text  x="1190.73" y="63.5" ></text>
</g>
<g >
<title>X509_cmp (4,313,881 samples, 0.03%)</title><rect x="1188.2" y="229" width="0.4" height="15.0" fill="rgb(243,177,42)" rx="2" ry="2" />
<text  x="1191.23" y="239.5" ></text>
</g>
<g >
<title>[libcrypto.so.3] (10,908,586 samples, 0.07%)</title><rect x="1188.8" y="181" width="0.8" height="15.0" fill="rgb(234,136,32)" rx="2" ry="2" />
<text  x="1191.79" y="191.5" ></text>
</g>
<g >
<title>[unknown] (3,915,416 samples, 0.02%)</title><rect x="725.7" y="309" width="0.3" height="15.0" fill="rgb(210,24,5)" rx="2" ry="2" />
<text  x="728.66" y="319.5" ></text>
</g>
<g >
<title>BIO_puts (6,582,802 samples, 0.04%)</title><rect x="1187.7" y="229" width="0.5" height="15.0" fill="rgb(220,69,16)" rx="2" ry="2" />
<text  x="1190.73" y="239.5" ></text>
</g>
<g >
<title>[libc.so.6] (6,582,802 samples, 0.04%)</title><rect x="1187.7" y="133" width="0.5" height="15.0" fill="rgb(223,84,20)" rx="2" ry="2" />
<text  x="1190.73" y="143.5" ></text>
</g>
<g >
<title>[libcrypto.so.3] (10,908,586 samples, 0.07%)</title><rect x="1188.8" y="245" width="0.8" height="15.0" fill="rgb(234,136,32)" rx="2" ry="2" />
<text  x="1191.79" y="255.5" ></text>
</g>
<g >
<title>[libc.so.6] (2,760,149 samples, 0.02%)</title><rect x="1189.2" y="85" width="0.2" height="15.0" fill="rgb(223,84,20)" rx="2" ry="2" />
<text  x="1192.18" y="95.5" ></text>
</g>
<g >
<title>[unknown] (4,172,667 samples, 0.03%)</title><rect x="1179.4" y="245" width="0.3" height="15.0" fill="rgb(210,24,5)" rx="2" ry="2" />
<text  x="1182.43" y="255.5" ></text>
</g>
<g >
<title>[libc.so.6] (8,365,415 samples, 0.05%)</title><rect x="1178.1" y="293" width="0.7" height="15.0" fill="rgb(223,84,20)" rx="2" ry="2" />
<text  x="1181.15" y="303.5" ></text>
</g>
<g >
<title>X509_STORE_load_file_ex (14,698,893 samples, 0.09%)</title><rect x="1187.4" y="309" width="1.2" height="15.0" fill="rgb(252,219,52)" rx="2" ry="2" />
<text  x="1190.45" y="319.5" ></text>
</g>
<g >
<title>ASN1_item_ex_i2d (4,313,881 samples, 0.03%)</title><rect x="1188.2" y="149" width="0.4" height="15.0" fill="rgb(236,146,35)" rx="2" ry="2" />
<text  x="1191.23" y="159.5" ></text>
</g>
<g >
<title>[libc.so.6] (10,008,507 samples, 0.06%)</title><rect x="726.0" y="341" width="0.7" height="15.0" fill="rgb(223,84,20)" rx="2" ry="2" />
<text  x="728.98" y="351.5" ></text>
</g>
<g >
<title>CRYPTO_malloc (6,582,802 samples, 0.04%)</title><rect x="1187.7" y="165" width="0.5" height="15.0" fill="rgb(210,23,5)" rx="2" ry="2" />
<text  x="1190.73" y="175.5" ></text>
</g>
<g >
<title>[unknown] (4,172,667 samples, 0.03%)</title><rect x="1179.4" y="277" width="0.3" height="15.0" fill="rgb(210,24,5)" rx="2" ry="2" />
<text  x="1182.43" y="287.5" ></text>
</g>
<g >
<title>[libc.so.6] (210,193,510 samples, 1.34%)</title><rect x="709.8" y="325" width="15.9" height="15.0" fill="rgb(223,84,20)" rx="2" ry="2" />
<text  x="712.83" y="335.5" ></text>
</g>
<g >
<title>[boa] (39,924,863 samples, 0.25%)</title><rect x="1179.7" y="309" width="3.1" height="15.0" fill="rgb(248,198,47)" rx="2" ry="2" />
<text  x="1182.75" y="319.5" ></text>
</g>
<g >
<title>[libcrypto.so.3] (10,908,586 samples, 0.07%)</title><rect x="1188.8" y="165" width="0.8" height="15.0" fill="rgb(234,136,32)" rx="2" ry="2" />
<text  x="1191.79" y="175.5" ></text>
</g>
<g >
<title>X509_check_purpose (4,313,881 samples, 0.03%)</title><rect x="1188.2" y="213" width="0.4" height="15.0" fill="rgb(250,210,50)" rx="2" ry="2" />
<text  x="1191.23" y="223.5" ></text>
</g>
<g >
<title>[libcrypto.so.3] (3,802,210 samples, 0.02%)</title><rect x="1187.4" y="181" width="0.3" height="15.0" fill="rgb(234,136,32)" rx="2" ry="2" />
<text  x="1190.45" y="191.5" ></text>
</g>
<g >
<title>[boa] (33,706,047 samples, 0.22%)</title><rect x="1187.4" y="341" width="2.6" height="15.0" fill="rgb(248,198,47)" rx="2" ry="2" />
<text  x="1190.45" y="351.5" ></text>
</g>
<g >
<title>CRYPTO_zalloc (2,760,149 samples, 0.02%)</title><rect x="1189.2" y="133" width="0.2" height="15.0" fill="rgb(226,96,23)" rx="2" ry="2" />
<text  x="1192.18" y="143.5" ></text>
</g>
<g >
<title>X509_load_cert_crl_file_ex (14,698,893 samples, 0.09%)</title><rect x="1187.4" y="277" width="1.2" height="15.0" fill="rgb(252,217,52)" rx="2" ry="2" />
<text  x="1190.45" y="287.5" ></text>
</g>
<g >
<title>SSL_CTX_new_ex (3,174,666 samples, 0.02%)</title><rect x="1188.6" y="325" width="0.2" height="15.0" fill="rgb(205,4,0)" rx="2" ry="2" />
<text  x="1191.55" y="335.5" ></text>
</g>
</g>
</svg>
